<svg xmlns="http://www.w3.org/2000/svg" viewBox="0 0 256 256" width="256" height="256" fill="none">
<defs>
  <linearGradient id="g1" x1="40" y1="20" x2="220" y2="240"><stop stop-color="#c9b6ff"/><stop offset="1" stop-color="#7b45ff"/></linearGradient>
  <linearGradient id="g2" x1="20" y1="40" x2="240" y2="220"><stop stop-color="#ffe7a8"/><stop offset="1" stop-color="#c98922"/></linearGradient>
  <linearGradient id="g3" x1="30" y1="10" x2="200" y2="230"><stop stop-color="#9be7ff"/><stop offset="1" stop-color="#39e0ff"/></linearGradient>
  <linearGradient id="g4" x1="10" y1="20" x2="230" y2="240"><stop stop-color="#ff9ad4"/><stop offset="1" stop-color="#ff4fd8"/></linearGradient>
  <filter id="s" x="-20%" y="-20%" width="140%" height="140%"><feDropShadow dx="0" dy="8" stdDeviation="8" flood-color="#120828" flood-opacity=".35"/></filter>
</defs>
<path d="M128 80c-8 8-18 40-18 70 0-8-40-22-70-8 22-54 58-86 88-96 30 10 66 42 88 96-30-14-70 0-70 8 0-30-10-62-18-70z" fill="url(#g1)" filter="url(#s)"/><path d="M70 120c18-8 36-4 46 10M186 120c-18-8-36-4-46 10" stroke="#ffe7a8" stroke-width="4"/>
</svg>